<svg width="18" height="4" viewBox="0 0 18 4" fill="none" xmlns="http://www.w3.org/2000/svg">
<path id="Shape" d="M4.06452 2C4.06452 3.10457 3.15464 4 2.03226 4C0.909873 4 0 3.10457 0 2C0 0.895431 0.909873 0 2.03226 0C3.15464 0 4.06452 0.895431 4.06452 2ZM11.0323 2C11.0323 3.10457 10.1224 4 9 4C7.87761 4 6.96774 3.10457 6.96774 2C6.96774 0.895431 7.87761 0 9 0C10.1224 0 11.0323 0.895431 11.0323 2ZM15.9677 4C17.0901 4 18 3.10457 18 2C18 0.895431 17.0901 0 15.9677 0C14.8454 0 13.9355 0.895431 13.9355 2C13.9355 3.10457 14.8454 4 15.9677 4Z" fill="#616161"/>
</svg>
