<svg xmlns="http://www.w3.org/2000/svg" width="14" height="14" viewBox="0 0 14 14" fill="none">
  <path d="M2.4238 1.70283C3.65089 0.641816 5.25049 0 7 0C10.866 0 14 3.134 14 7C14 8.49527 13.5311 9.88106 12.7324 11.0184L10.5 7H12.6C12.6 3.9072 10.0928 1.4 7 1.4C5.49487 1.4 4.12844 1.99379 3.12216 2.95989L2.4238 1.70283ZM11.5762 12.2972C10.3491 13.3582 8.74951 14 7 14C3.134 14 0 10.866 0 7C0 5.5047 0.468853 4.11891 1.26756 2.98161L3.5 7H1.4C1.4 10.0928 3.9072 12.6 7 12.6C8.50514 12.6 9.87154 12.0062 10.8779 11.0401L11.5762 12.2972Z" fill="#00B7C3"/>
</svg>