<svg width="18" height="14" viewBox="0 0 18 14" fill="none" xmlns="http://www.w3.org/2000/svg">
<path id="Vector" d="M9 7.41006L12.4712 10.3799L11.3141 11.3698L9.81818 10.0905V14H8.18182V10.0891L6.68583 11.3698L5.52875 10.3799L9 7.41006ZM9 0C11.9401 0 14.3627 1.89533 14.6897 4.33576C16.5975 4.78208 18 6.27592 18 8.05C18 10.0582 16.2029 11.7072 13.9096 11.8843L13.9098 10.4751C15.2972 10.305 16.3636 9.28403 16.3636 8.05C16.3636 6.6969 15.0815 5.6 13.5 5.6C13.3292 5.6 13.1618 5.61281 12.9998 5.6378C13.0595 5.39994 13.0909 5.15311 13.0909 4.9C13.0909 2.96701 11.2593 1.4 9 1.4C6.74066 1.4 4.90909 2.96701 4.90909 4.9C4.90909 5.15311 4.94049 5.39994 5.00077 5.63731C4.83816 5.61281 4.67083 5.6 4.5 5.6C2.91845 5.6 1.63636 6.6969 1.63636 8.05C1.63636 9.24021 2.62834 10.2322 3.94352 10.4538L4.09095 10.4752L4.09123 11.8843C1.79751 11.7076 0 10.0584 0 8.05C0 6.27592 1.40256 4.78208 3.31076 4.33588C3.63732 1.89533 6.05995 0 9 0Z" fill="white"/>
</svg>
